#!OML:ASF F:\VICON\USERDATA\INSTALL\rory3\rory3.ASF
:FULLY-SPECIFIED
:DEGREES
218
root 4.25651 17.5347 19.667 -2.0715 -0.585657 1.87147
lowerback 10.2112 -1.23594 -3.74974
upperback 0.362581 -2.0065 1.37056
thorax -5.17299 -0.88335 3.83904
lowerneck -17.6198 -2.12452 -2.2996
upperneck 16.5817 -2.32438 0.0998774
head 8.06851 -1.2407 0.13096
rclavicle -1.21756e-014 -1.07344e-014
rhumerus -36.4121 -24.7641 -73.6619
rradius 23.833
rwrist 7.82183
rhand -18.2102 23.0447
rfingers 7.12502
rthumb 8.06743 -6.78131
lclavicle -1.21756e-014 -1.07344e-014
lhumerus -25.0408 -2.66393 80.1215
lradius 32.8532
lwrist 8.40366
lhand -26.2921 26.8451
lfingers 7.12502
lthumb 0.263612 56.8246
rfemur -30.1641 5.82802 18.3951
rtibia 23.813
rfoot -4.59363 -8.41398
rtoes -7.47777
lfemur 17.7868 -5.1904 -26.4722
ltibia 20.5295
lfoot -14.846 -3.3951
ltoes -12.4501
219
root 4.2316 17.5628 19.8855 -2.00742 -0.409682 1.55577
lowerback 10.3158 -1.35026 -3.43472
upperback 0.17763 -2.12026 1.49143
thorax -5.42248 -0.936253 3.8128
lowerneck -17.5477 -2.12034 -2.36955
upperneck 16.6759 -2.2889 0.0320604
head 8.08729 -1.23602 0.124214
rclavicle -3.16316e-014 -1.39149e-014
rhumerus -36.6495 -24.7296 -73.5318
rradius 23.8157
rwrist 8.07021
rhand -18.1995 21.7227
rfingers 7.12502
rthumb 8.07781 -8.10288
lclavicle -3.16316e-014 -1.39149e-014
lhumerus -25.4337 -2.51368 80.2331
lradius 32.8412
lwrist 8.40917
lhand -26.1666 27.1827
lfingers 7.12502
lthumb 0.384878 57.1621
rfemur -30.3976 5.91168 18.7207
rtibia 24.8442
rfoot -3.06582 -8.46326
rtoes -5.89674
lfemur 17.7353 -5.44642 -26.0824
ltibia 21.6086
lfoot -13.6327 -4.13789
ltoes -13.1884
220
root 4.20247 17.5754 20.081 -1.9641 -0.444297 0.638385
lowerback 10.6474 -1.39154 -2.60283
upperback 0.0280513 -2.06416 1.82129
thorax -5.78814 -0.91556 3.6989
lowerneck -17.73 -2.16401 -2.30537
upperneck 16.8925 -2.30014 -0.265063
head 8.1878 -1.26875 0.00993042
rclavicle 1.30452e-014 -1.43125e-014
rhumerus -36.8048 -25.1289 -73.1034
rradius 23.625
rwrist 8.83165
rhand -18.2496 21.3267
rfingers 7.12502
rthumb 8.0294 -8.50074
lclavicle 1.30452e-014 -1.43125e-014
lhumerus -25.7734 -2.01356 80.3922
lradius 32.946
lwrist 8.14879
lhand -26.9533 28.2659
lfingers 7.12502
lthumb -0.374957 58.2453
rfemur -30.3937 6.19448 19.7808
rtibia 25.6247
rfoot -2.53567 -8.25892
rtoes -4.77971
lfemur 17.4648 -5.67837 -25.0483
ltibia 23.179
lfoot -12.3198 -4.80882
ltoes -14.8142
221
root 4.18893 17.5802 20.3334 -2.21618 -0.294088 0.510353
lowerback 10.3783 -1.49542 -2.35564
upperback 0.178234 -2.16482 1.86547
thorax -5.47745 -0.980508 3.60509
lowerneck -18.1075 -2.12896 -2.20923
upperneck 17.2468 -2.21948 -0.491721
head 8.36897 -1.24959 -0.0782631
rclavicle -3.29983e-014 -1.98785e-015
rhumerus -36.8509 -25.7091 -72.6305
rradius 23.1251
rwrist 9.32315
rhand -18.4944 22.1493
rfingers 7.12502
rthumb 7.79312 -7.68708
lclavicle -3.29983e-014 -1.98785e-015
lhumerus -26.0193 -1.61504 80.559
lradius 32.9185
lwrist 8.02206
lhand -27.5201 27.2973
lfingers 7.12502
lthumb -0.922397 57.2751
rfemur -29.6809 5.72498 20.0688
rtibia 26.2871
rfoot -2.55527 -6.93969
rtoes -6.65465
lfemur 17.6631 -5.93383 -25.0552
ltibia 25.2048
lfoot -11.2379 -5.3231
ltoes -16.8967
222
root 4.17323 17.5775 20.5526 -2.29908 -0.377177 0.300075
lowerback 10.417 -1.52318 -2.09381
upperback 0.0880066 -2.16549 1.9579
thorax -5.60019 -0.982892 3.55866
lowerneck -17.9136 -2.09669 -2.18119
upperneck 17.3065 -2.14531 -0.698941
head 8.35193 -1.23526 -0.141602
rclavicle 2.68111e-014 -2.78299e-015
rhumerus -37.1639 -25.9382 -72.1406
rradius 22.6274
rwrist 9.43515
rhand -18.4849 23.5326
rfingers 7.12502
rthumb 7.80229 -6.30341
lclavicle 2.68111e-014 -2.78299e-015
lhumerus -26.4578 -1.15429 80.7383
lradius 32.7047
lwrist 7.81212
lhand -28.0599 24.3347
lfingers 7.12502
lthumb -1.44373 54.3095
rfemur -29.3328 5.38575 20.4783
rtibia 26.9079
rfoot -1.89683 -5.49263
rtoes -5.21981
lfemur 17.4899 -5.75067 -24.7715
ltibia 27.4398
lfoot -10.2318 -5.76415
ltoes -21.9114
223
root 4.15624 17.6065 20.7662 -2.43271 -0.658456 0.173399
lowerback 10.5786 -1.48503 -1.95265
upperback 0.0345881 -2.09649 2.00543
thorax -5.75583 -0.948241 3.527
lowerneck -17.5867 -2.04188 -2.10551
upperneck 17.1364 -2.05835 -0.90525
head 8.23343 -1.20984 -0.207644
rclavicle -2.20154e-014 1.27222e-014
rhumerus -37.3359 -25.7068 -72.0973
rradius 22.505
rwrist 9.05012
rhand -18.2866 23.6718
rfingers 7.12502
rthumb 7.99373 -6.15704
lclavicle -2.20154e-014 1.27222e-014
lhumerus -26.7107 -0.637487 80.803
lradius 32.3342
lwrist 7.46143
lhand -27.3513 25.4824
lfingers 7.12502
lthumb -0.759423 55.4608
rfemur -29.0155 5.1786 20.8913
rtibia 27.8365
rfoot -1.19802 -4.58169
rtoes -0.757018
lfemur 16.6754 -5.70795 -24.6027
ltibia 29.568
lfoot -7.26648 -7.44561
ltoes -13.389
224
root 4.1345 17.6376 20.984 -2.40882 -1.05394 -0.367108
lowerback 10.568 -1.41768 -1.42648
upperback 0.0274716 -1.93244 2.16699
thorax -5.78097 -0.879599 3.37495
lowerneck -17.5739 -1.98747 -2.21498
upperneck 16.9737 -1.97686 -0.80262
head 8.17843 -1.16666 -0.144235
rclavicle -1.33931e-014 1.31198e-014
rhumerus -37.2614 -25.9585 -71.99
rradius 22.4152
rwrist 9.31824
rhand -18.7871 22.738
rfingers 7.12502
rthumb 7.51064 -7.10868
lclavicle -1.33931e-014 1.31198e-014
lhumerus -26.9411 -0.150456 80.8567
lradius 32.2419
lwrist 7.16904
lhand -26.9104 27.5536
lfingers 7.12502
lthumb -0.33352 57.533
rfemur -28.7154 5.09991 21.8069
rtibia 28.6825
rfoot -0.950251 -3.99906
rtoes 1.82901
lfemur 15.1659 -4.92838 -23.7713
ltibia 31.8654
lfoot -4.5417 -8.55869
ltoes -7.0368
225
root 4.11123 17.6457 21.204 -2.43328 -1.2019 -0.471836
lowerback 10.555 -1.35398 -1.35655
upperback -0.0578157 -1.83554 2.2135
thorax -5.87085 -0.830822 3.37179
lowerneck -17.4522 -1.96531 -2.34119
upperneck 17.0027 -1.94632 -0.657678
head 8.16952 -1.14565 -0.0704399
rclavicle -2.90723e-015 -1.55052e-014
rhumerus -37.4443 -27.3031 -71.1026
rradius 21.7862
rwrist 10.8079
rhand -19.1395 22.92
rfingers 7.12502
rthumb 7.17048 -6.93855
lclavicle -2.90723e-015 -1.55052e-014
lhumerus -27.518 0.219369 81.0175
lradius 32.378
lwrist 7.0127
lhand -27.4836 27.6961
lfingers 7.12502
lthumb -0.887118 57.674
rfemur -28.414 4.77107 22.2432
rtibia 29.4697
rfoot -1.31807 -3.38659
rtoes 1.98854
lfemur 14.5562 -4.38292 -23.3554
ltibia 34.2086
lfoot -2.90108 -9.31716
ltoes -10.7255
226
root 4.08141 17.6649 21.4291 -2.5211 -1.29895 -0.640911
lowerback 10.3745 -1.33425 -1.30703
upperback -0.0456763 -1.79775 2.30346
thorax -5.75763 -0.814623 3.4259
lowerneck -17.4792 -1.96817 -2.51543
upperneck 17.1957 -1.94257 -0.462291
head 8.24313 -1.13646 0.0223862
rclavicle 2.67365e-014 -2.38542e-014
rhumerus -37.6704 -28.2639 -70.3229
rradius 21.2845
rwrist 11.8586
rhand -18.5654 23.7021
rfingers 7.12502
rthumb 7.72462 -6.13681
lclavicle 2.67365e-014 -2.38542e-014
lhumerus -28.0881 0.667362 81.1259
lradius 32.4863
lwrist 6.81422
lhand -27.4004 26.9056
lfingers 7.12502
lthumb -0.806815 56.8838
rfemur -27.9727 4.74936 22.6833
rtibia 30.1363
rfoot -1.93385 -3.0428
rtoes 1.07184
lfemur 13.6218 -3.81222 -22.7784
ltibia 36.5598
lfoot -0.529384 -10.9418
ltoes -15.8058
